<svg width="89" height="88" viewBox="0 0 89 88" fill="none" xmlns="http://www.w3.org/2000/svg">
<path fill-rule="evenodd" clip-rule="evenodd" d="M44.4312 23.0486C38.7832 23.0486 38.0762 23.0722 35.8581 23.1734C33.6441 23.2746 32.1316 23.6267 30.809 24.141C29.4227 24.6623 28.1653 25.4802 27.1255 26.5394C26.068 27.5779 25.2496 28.8345 24.7271 30.2215C24.2156 31.5441 23.8621 33.058 23.7608 35.2719C23.661 37.4887 23.6361 38.1944 23.6361 43.8437C23.6361 49.493 23.6596 50.1987 23.7608 52.4168C23.8621 54.6308 24.2142 56.1433 24.7285 57.4659C25.2498 58.8522 26.0677 60.1096 27.1269 61.1494C28.1655 62.2068 29.422 63.0253 30.809 63.5478C32.1316 64.0607 33.6441 64.4128 35.8581 64.514C38.0762 64.6152 38.7832 64.6388 44.4312 64.6388C50.0791 64.6388 50.7862 64.6152 53.0043 64.514C55.2183 64.4128 56.7308 64.0607 58.0534 63.5464C59.4397 63.0251 60.6971 62.2072 61.7369 61.148C62.7943 60.1094 63.6128 58.8529 64.1352 57.4659C64.6482 56.1433 65.0003 54.6308 65.1015 52.4168C65.2027 50.1987 65.2263 49.4916 65.2263 43.8437C65.2263 38.1957 65.2027 37.4887 65.1015 35.2706C65.0003 33.0566 64.6482 31.5441 64.1339 30.2215C63.6118 28.8339 62.7933 27.5768 61.7355 26.538C60.6969 25.4805 59.4404 24.6621 58.0534 24.1396C56.7308 23.6281 55.2169 23.2746 53.0029 23.1734C50.7862 23.0735 50.0805 23.0486 44.4312 23.0486ZM44.4312 26.7959C49.9835 26.7959 50.642 26.8167 52.8352 26.9165C54.862 27.0094 55.9628 27.3462 56.6961 27.6332C57.6666 28.0089 58.3598 28.4609 59.0876 29.1873C59.8154 29.9151 60.266 30.6083 60.6417 31.5787C60.9273 32.3121 61.2655 33.4129 61.3584 35.4397C61.4582 37.6329 61.479 38.2914 61.479 43.8437C61.479 49.396 61.4582 50.0545 61.3584 52.2477C61.2655 54.2745 60.9286 55.3753 60.6417 56.1087C60.3089 57.0119 59.7778 57.8291 59.0876 58.5001C58.4167 59.1905 57.5995 59.7215 56.6961 60.0542C55.9628 60.3398 54.862 60.678 52.8352 60.7709C50.642 60.8707 49.9849 60.8915 44.4312 60.8915C38.8775 60.8915 38.2204 60.8707 36.0272 60.7709C34.0004 60.678 32.8996 60.3411 32.1662 60.0542C31.263 59.7214 30.4458 59.1903 29.7748 58.5001C29.0846 57.829 28.5536 57.0119 28.2207 56.1087C27.9351 55.3753 27.5969 54.2745 27.504 52.2477C27.4042 50.0545 27.3834 49.396 27.3834 43.8437C27.3834 38.2914 27.4042 37.6329 27.504 35.4397C27.5969 33.4129 27.9337 32.3121 28.2207 31.5787C28.5964 30.6083 29.0484 29.9151 29.7748 29.1873C30.4457 28.497 31.2629 27.9659 32.1662 27.6332C32.8996 27.3476 34.0004 27.0094 36.0272 26.9165C38.2204 26.8167 38.8789 26.7959 44.4312 26.7959Z" fill="black"/>
<path fill-rule="evenodd" clip-rule="evenodd" d="M44.4312 50.7823C43.52 50.7823 42.6178 50.6029 41.7759 50.2542C40.9341 49.9055 40.1692 49.3944 39.5249 48.7501C38.8806 48.1057 38.3695 47.3408 38.0208 46.499C37.6721 45.6572 37.4926 44.7549 37.4926 43.8437C37.4926 42.9325 37.6721 42.0302 38.0208 41.1884C38.3695 40.3466 38.8806 39.5816 39.5249 38.9373C40.1692 38.293 40.9341 37.7819 41.7759 37.4332C42.6178 37.0845 43.52 36.9051 44.4312 36.9051C46.2715 36.9051 48.0363 37.6361 49.3376 38.9373C50.6388 40.2386 51.3699 42.0035 51.3699 43.8437C51.3699 45.6839 50.6388 47.4488 49.3376 48.7501C48.0363 50.0513 46.2715 50.7823 44.4312 50.7823ZM44.4312 33.155C41.5964 33.155 38.8777 34.2811 36.8732 36.2857C34.8687 38.2902 33.7425 41.0089 33.7425 43.8437C33.7425 46.6785 34.8687 49.3972 36.8732 51.4017C38.8777 53.4063 41.5964 54.5324 44.4312 54.5324C47.266 54.5324 49.9847 53.4063 51.9893 51.4017C53.9938 49.3972 55.1199 46.6785 55.1199 43.8437C55.1199 41.0089 53.9938 38.2902 51.9893 36.2857C49.9847 34.2811 47.266 33.155 44.4312 33.155ZM58.2295 32.9609C58.2295 33.631 57.9633 34.2737 57.4894 34.7475C57.0156 35.2213 56.373 35.4875 55.7029 35.4875C55.0328 35.4875 54.3901 35.2213 53.9163 34.7475C53.4425 34.2737 53.1763 33.631 53.1763 32.9609C53.1763 32.2908 53.4425 31.6482 53.9163 31.1743C54.3901 30.7005 55.0328 30.4343 55.7029 30.4343C56.373 30.4343 57.0156 30.7005 57.4894 31.1743C57.9633 31.6482 58.2295 32.2908 58.2295 32.9609Z" fill="black"/>
<rect x="1.54129" y="0.954133" width="85.7798" height="85.7798" rx="8.57798" stroke="black" stroke-opacity="0.2" stroke-width="1.55963"/>
</svg>
