<svg width="88" height="89" viewBox="0 0 88 89" fill="none" xmlns="http://www.w3.org/2000/svg">
<path d="M23.3425 44.3073C23.3425 55.6951 32.7498 65.1024 44.1376 65.1024C55.5254 65.1024 64.9327 55.6951 64.9327 44.3073C64.9327 32.9195 55.5254 23.636 44.1376 23.636C32.7498 23.636 23.3425 32.9195 23.3425 44.3073ZM51.812 53.9622C46.9846 50.9915 40.7955 50.2488 33.6163 51.8579C31.8834 52.1055 31.6358 49.6299 33.1212 49.3823C41.0431 47.5256 47.7272 48.3921 53.1736 51.7341C54.5352 52.6006 53.1736 54.7049 51.812 53.9622ZM53.9163 48.3921C48.3461 44.9262 39.8053 43.936 33.2449 45.9165C31.1407 46.5354 30.398 43.3171 32.3785 42.8219C39.9291 40.5939 49.2126 41.7079 55.6492 45.6689C57.3821 46.7829 55.6492 49.5061 53.9163 48.3921ZM32.2547 39.6037C30.1504 40.3463 28.7888 36.7567 31.1407 35.8902C38.4437 33.6622 50.8218 34.0335 58.4961 38.6134C60.6004 39.7274 58.6199 43.1933 56.3919 41.9555C49.7077 37.9945 38.5675 37.6232 32.2547 39.6037Z" fill="black"/>
<rect x="1.24771" y="1.54129" width="85.7798" height="85.7798" rx="8.57798" stroke="black" stroke-opacity="0.2" stroke-width="1.55963"/>
</svg>
