<svg width="48" height="47" viewBox="0 0 48 47" fill="currentColor" xmlns="http://www.w3.org/2000/svg">
<path fill-rule="evenodd" clip-rule="evenodd" d="M0.82608 23.5832C0.82608 10.737 11.2777 0.285706 24.1246 0.285706C36.9713 0.285706 47.4229 10.737 47.4229 23.5832C47.4229 36.4302 36.9713 46.882 24.1246 46.882C11.2777 46.882 0.82608 36.4302 0.82608 23.5832ZM4.56689 23.5832C4.56689 34.3677 13.3403 43.1412 24.1246 43.1412C34.9086 43.1412 43.682 34.3677 43.682 23.5832C43.682 12.7995 34.9086 4.02627 24.1246 4.02627C13.3403 4.02627 4.56689 12.7995 4.56689 23.5832ZM36.6107 16.6792C26.8831 12.1835 13.2206 14.1783 12.6438 14.2654C11.6228 14.4197 10.9203 15.3721 11.0742 16.3931C11.228 17.4141 12.1814 18.1186 13.2017 17.9643C13.3321 17.9446 26.3422 16.0547 35.0413 20.0748C35.2952 20.1923 35.5623 20.2479 35.8249 20.2479C36.5316 20.2479 37.208 19.8454 37.5239 19.1618C37.9574 18.2239 37.5484 17.1126 36.6107 16.6792ZM13.4675 21.5285C13.989 21.45 26.3387 19.6464 35.1453 23.7161C36.083 24.1496 36.492 25.2611 36.0588 26.1988C35.7426 26.8826 35.0662 27.2849 34.3595 27.2851C34.0969 27.2851 33.8303 27.2295 33.5759 27.1121C25.798 23.5176 14.1421 25.21 14.0254 25.2277C13.0047 25.3811 12.0515 24.6775 11.8979 23.6563C11.744 22.6353 12.4465 21.6829 13.4675 21.5285ZM13.8995 28.5224C14.3576 28.4533 25.2114 26.8682 32.9659 30.4519C33.9036 30.8853 34.3123 31.9969 33.8791 32.9346C33.5632 33.6181 32.8868 34.0204 32.1801 34.0206C31.9174 34.0206 31.6504 33.965 31.3965 33.8476C24.6498 30.7295 14.5593 32.2059 14.4581 32.2213C13.4374 32.3749 12.4837 31.6727 12.3293 30.6512C12.175 29.6297 12.878 28.6768 13.8995 28.5224Z" fill="white"/>
</svg>
