<svg width="88" height="88" viewBox="0 0 88 88" fill="none" xmlns="http://www.w3.org/2000/svg">
<path fill-rule="evenodd" clip-rule="evenodd" d="M61.7173 28.4583C63.6869 28.9855 65.2349 30.5333 65.762 32.5029C66.7148 36.0693 66.7187 43.5147 66.7187 43.5147C66.7187 43.5147 66.7187 50.9601 65.762 54.5265C65.2349 56.4961 63.6869 58.0439 61.7173 58.571C58.1511 59.5277 43.844 59.5277 43.844 59.5277C43.844 59.5277 29.537 59.5277 25.9706 58.571C24.001 58.0439 22.4532 56.4961 21.926 54.5265C20.9694 50.9601 20.9694 43.5147 20.9694 43.5147C20.9694 43.5147 20.9694 36.0693 21.926 32.5029C22.4532 30.5333 24.001 28.9855 25.9706 28.4583C29.537 27.5017 43.844 27.5017 43.844 27.5017C43.844 27.5017 58.1511 27.5017 61.7173 28.4583ZM51.1502 43.5153L39.2647 50.3769V36.6537L51.1502 43.5153Z" fill="black"/>
<rect x="0.954133" y="1.24759" width="85.7798" height="85.7798" rx="8.57798" stroke="black" stroke-opacity="0.2" stroke-width="1.55963"/>
</svg>
